<svg xmlns="http://www.w3.org/2000/svg" viewBox="0 0 800 600" width="800" height="600">
  <rect width="800" height="600" fill="#efece8"></rect>
  
  <rect x="120" y="110" width="420" height="380" rx="8" fill="#25272b"></rect>
  
  <circle cx="148" cy="138" r="5" fill="#3a3c40"></circle>
  <circle cx="166" cy="138" r="5" fill="#3a3c40"></circle>
  <circle cx="184" cy="138" r="5" fill="#3a3c40"></circle>
  
  <rect x="148" y="170" width="120" height="10" rx="2" fill="#f7f5f3"></rect>
  <rect x="148" y="190" width="60" height="6" rx="2" fill="#8a8d92"></rect>
  
  <rect x="148" y="220" width="364" height="130" rx="4" fill="#3a3c40"></rect>
  
  <line x1="170" y1="290" x2="330" y2="290" stroke="#e4286e" stroke-width="2" stroke-dasharray="6 5"></line>
  
  <rect x="148" y="366" width="170" height="98" rx="4" fill="#3a3c40"></rect>
  <rect x="342" y="366" width="170" height="98" rx="4" fill="#3a3c40"></rect>
  
  <circle cx="560" cy="230" r="36" fill="none" stroke="#25272b" stroke-width="2"></circle>
  <circle cx="560" cy="230" r="6" fill="#e4286e"></circle>
  <line x1="560" y1="266" x2="560" y2="330" stroke="#25272b" stroke-width="1.5"></line>
  <rect x="520" y="330" width="130" height="54" rx="4" fill="#25272b"></rect>
  <rect x="534" y="346" width="64" height="6" rx="2" fill="#f7f5f3"></rect>
  <rect x="534" y="360" width="94" height="4" rx="2" fill="#8a8d92"></rect>
  
  <text x="672" y="134" font-family="Inter Tight, sans-serif" font-size="13" font-weight="600" fill="#25272b" letter-spacing="2">UX</text>
  <line x1="672" y1="146" x2="720" y2="146" stroke="#e4286e" stroke-width="2"></line>
</svg>