<svg xmlns="http://www.w3.org/2000/svg" viewBox="0 0 800 600" width="800" height="600">
  <rect width="800" height="600" fill="#efece8"></rect>
  
  <rect x="90" y="120" width="330" height="150" rx="6" fill="#25272b"></rect>
  <g transform="translate(112,148)">
    <g fill="#e4286e">
      <polygon points="10,0 13,7 20,7 14.5,11.5 16.5,18.5 10,14.5 3.5,18.5 5.5,11.5 0,7 7,7"></polygon>
      <polygon points="34,0 37,7 44,7 38.5,11.5 40.5,18.5 34,14.5 27.5,18.5 29.5,11.5 24,7 31,7"></polygon>
    </g>
    <g fill="#3a3c40">
      <polygon points="58,0 61,7 68,7 62.5,11.5 64.5,18.5 58,14.5 51.5,18.5 53.5,11.5 48,7 55,7"></polygon>
      <polygon points="82,0 85,7 92,7 86.5,11.5 88.5,18.5 82,14.5 75.5,18.5 77.5,11.5 72,7 79,7"></polygon>
      <polygon points="106,0 109,7 116,7 110.5,11.5 112.5,18.5 106,14.5 99.5,18.5 101.5,11.5 96,7 103,7"></polygon>
    </g>
  </g>
  <rect x="112" y="192" width="270" height="6" rx="2" fill="#f7f5f3"></rect>
  <rect x="112" y="208" width="220" height="6" rx="2" fill="#8a8d92"></rect>
  <rect x="112" y="224" width="240" height="6" rx="2" fill="#8a8d92"></rect>
  <rect x="112" y="244" width="90" height="6" rx="2" fill="#5a5d62"></rect>
  
  <g transform="translate(300,260) rotate(-3)">
    <rect x="0" y="0" width="360" height="170" rx="6" fill="#f7f5f3" stroke="#25272b" stroke-width="1.5"></rect>
    <g transform="translate(24,28)" fill="#e4286e">
      <polygon points="10,0 13,7 20,7 14.5,11.5 16.5,18.5 10,14.5 3.5,18.5 5.5,11.5 0,7 7,7"></polygon>
      <polygon points="34,0 37,7 44,7 38.5,11.5 40.5,18.5 34,14.5 27.5,18.5 29.5,11.5 24,7 31,7"></polygon>
      <polygon points="58,0 61,7 68,7 62.5,11.5 64.5,18.5 58,14.5 51.5,18.5 53.5,11.5 48,7 55,7"></polygon>
      <polygon points="82,0 85,7 92,7 86.5,11.5 88.5,18.5 82,14.5 75.5,18.5 77.5,11.5 72,7 79,7"></polygon>
      <polygon points="106,0 109,7 116,7 110.5,11.5 112.5,18.5 106,14.5 99.5,18.5 101.5,11.5 96,7 103,7"></polygon>
    </g>
    <rect x="24" y="72" width="300" height="7" rx="2" fill="#25272b"></rect>
    <rect x="24" y="92" width="260" height="6" rx="2" fill="#5a5d62"></rect>
    <rect x="24" y="108" width="280" height="6" rx="2" fill="#5a5d62"></rect>
    <rect x="24" y="124" width="180" height="6" rx="2" fill="#5a5d62"></rect>
    <line x1="24" y1="146" x2="80" y2="146" stroke="#e4286e" stroke-width="2"></line>
    <text x="24" y="162" font-family="Inter Tight, sans-serif" font-size="10" font-weight="600" fill="#25272b" letter-spacing="1.5">RESOLVED</text>
  </g>
  
  <path d="M 440 200 Q 500 180 530 260" fill="none" stroke="#25272b" stroke-width="1.5" stroke-dasharray="5 4"></path>
  <polygon points="525,252 535,262 528,268" fill="#25272b"></polygon>
</svg>