<svg xmlns="http://www.w3.org/2000/svg" viewBox="0 0 800 600" width="800" height="600">
  <rect width="800" height="600" fill="#efece8"></rect>
  
  <rect x="110" y="120" width="580" height="360" rx="8" fill="#25272b"></rect>
  
  <circle cx="138" cy="148" r="5" fill="#3a3c40"></circle>
  <circle cx="156" cy="148" r="5" fill="#3a3c40"></circle>
  <circle cx="174" cy="148" r="5" fill="#3a3c40"></circle>
  <rect x="210" y="140" width="140" height="18" rx="4" fill="#1d1f23"></rect>
  <text x="222" y="154" font-family="ui-monospace, Menlo, monospace" font-size="11" fill="#8a8d92">index.cfm</text>
  
  <g font-family="ui-monospace, Menlo, monospace" font-size="12" fill="#5a5d62">
    <text x="138" y="200">01</text>
    <text x="138" y="224">02</text>
    <text x="138" y="248">03</text>
    <text x="138" y="272">04</text>
    <text x="138" y="296">05</text>
    <text x="138" y="320">06</text>
    <text x="138" y="344">07</text>
    <text x="138" y="368">08</text>
    <text x="138" y="392">09</text>
    <text x="138" y="416">10</text>
    <text x="138" y="440">11</text>
  </g>
  
  <rect x="178" y="192" width="240" height="8" rx="2" fill="#e4286e"></rect>
  <rect x="178" y="216" width="160" height="8" rx="2" fill="#f7f5f3"></rect>
  <rect x="208" y="240" width="300" height="8" rx="2" fill="#8a8d92"></rect>
  <rect x="208" y="264" width="210" height="8" rx="2" fill="#f7f5f3"></rect>
  <rect x="238" y="288" width="260" height="8" rx="2" fill="#8a8d92"></rect>
  <rect x="238" y="312" width="140" height="8" rx="2" fill="#e4286e"></rect>
  <rect x="208" y="336" width="180" height="8" rx="2" fill="#f7f5f3"></rect>
  <rect x="178" y="360" width="120" height="8" rx="2" fill="#8a8d92"></rect>
  <rect x="178" y="384" width="260" height="8" rx="2" fill="#f7f5f3"></rect>
  <rect x="208" y="408" width="190" height="8" rx="2" fill="#8a8d92"></rect>
  <rect x="178" y="432" width="80" height="8" rx="2" fill="#e4286e"></rect>
  
  <rect x="510" y="388" width="150" height="66" rx="4" fill="#f7f5f3"></rect>
  <text x="528" y="416" font-family="Inter Tight, sans-serif" font-size="28" font-weight="700" fill="#25272b">20+</text>
  <text x="580" y="416" font-family="Inter Tight, sans-serif" font-size="11" font-weight="500" fill="#5a5d62" letter-spacing="1.5">YRS</text>
  <line x1="528" y1="428" x2="644" y2="428" stroke="#e4286e" stroke-width="1.5"></line>
  <text x="528" y="444" font-family="Inter Tight, sans-serif" font-size="9" font-weight="500" fill="#5a5d62" letter-spacing="2">EXPERIENCE</text>
</svg>